<?xml version="1.0" encoding="utf-8"?>
<!-- Generator: Adobe Illustrator 23.0.1, SVG Export Plug-In . SVG Version: 6.00 Build 0)  -->
<svg version="1.1" id="Warstwa_1" xmlns="http://www.w3.org/2000/svg" xmlns:xlink="http://www.w3.org/1999/xlink" x="0px" y="0px"
	 viewBox="0 0 155 150" style="enable-background:new 0 0 155 150;" xml:space="preserve">
<style type="text/css">
	.st0{fill-rule:evenodd;clip-rule:evenodd;fill:#FFFFFF;}
	.st1{fill-rule:evenodd;clip-rule:evenodd;fill:#134294;}
	.st2{fill-rule:evenodd;clip-rule:evenodd;fill:#E53027;}
	.st3{fill-rule:evenodd;clip-rule:evenodd;fill:none;}
</style>
<g>
	<polygon class="st0" points="77.5,149.11 3.39,75.01 77.5,0.89 151.61,75.01 	"/>
	
		<rect x="26.3" y="23.8" transform="matrix(0.7071 -0.7071 0.7071 0.7071 -30.336 76.7656)" class="st1" width="102.4" height="102.4"/>
	<g>
		<g>
			<g>
				<path class="st0" d="M35.76,61.01c0-1.32,1.04-2.34,2.33-2.34c1.3,0,2.34,1.03,2.34,2.34c0,1.29-1.05,2.35-2.34,2.35
					C36.8,63.36,35.76,62.3,35.76,61.01L35.76,61.01L35.76,61.01z M39.92,61.01c0-1.03-0.79-1.83-1.83-1.83
					c-1.03,0-1.81,0.8-1.81,1.83c0,1.03,0.78,1.82,1.81,1.82C39.13,62.83,39.92,62.04,39.92,61.01L39.92,61.01L39.92,61.01z"/>
				<path class="st0" d="M39.25,62.18h-0.64l-0.53-1.03H37.7v1.03h-0.51v-2.49h1.16l0,0c0.52,0,0.91,0.15,0.91,0.8
					c0,0.51-0.25,0.65-0.64,0.65l0,0L39.25,62.18L39.25,62.18z M38.35,60.75c0.27,0,0.39,0,0.39-0.25c0-0.27-0.26-0.27-0.53-0.27
					l0,0H37.7v0.52H38.35L38.35,60.75z"/>
				<path class="st0" d="M114.36,93.14c-0.71,1.01-2.01,1.27-6.55,1.27c-9.07,0-8.25-0.27-8.25-6.8V80.1h6.4v8.22
					c0,1.13,0.43,1.4,1.28,1.4c1.27,0,1.55-0.99,1.55-1.7c0,0,0-7.21,0-7.22c0-1.15-0.47-1.42-1.41-1.93
					c-2.17-1.21-4.65-1.81-6.57-3.42c-1.78-1.51-1.55-3.46-1.55-5.57v-4.12c0-6.53-0.13-7.51,7.82-7.51c6.52,0,7.68,0.57,7.68,5.38
					v7.66h-6.41v-5.38c0-1.13-0.42-2.28-1.42-2.28c-1.13,0-1.28,1.42-1.28,2.55c0,0,0,3.36,0,3.41c0,1.62,0.08,2.08,1.56,2.91
					c3.74,2.09,7.97,2.72,7.97,7.72v8.52C115.21,90.58,115.07,92.15,114.36,93.14z"/>
				<path class="st0" d="M71.37,94.26h10.34V89.6H77.6V58.67h-6.23V94.26L71.37,94.26z"/>
				<path class="st0" d="M55.06,64.19h3.83v30.07h6.52V64.19h3.98v-5.53H55.06V64.19L55.06,64.19z"/>
				<path class="st0" d="M43.28,58.67h8.51l3.82,35.6H49.8l-0.62-7.66h-2.77l-0.57,7.66h-5.97L43.28,58.67L43.28,58.67z
					 M47.68,66.52l-0.99,15.42h2.21L47.68,66.52z"/>
				<path class="st0" d="M85.83,58.67h8.38l3.97,35.6h-5.96l-0.62-7.66h-2.9l-0.44,7.66h-5.82L85.83,58.67L85.83,58.67z
					 M90.09,66.52l-1.12,15.42h2.22L90.09,66.52z"/>
			</g>
		</g>
	</g>
	<polygon class="st2" points="77.51,31.66 50.35,31.68 77.5,4.52 119.27,46.26 	"/>
	<polygon class="st2" points="35.76,46.26 49,33.02 73.62,33.02 	"/>
	<rect x="99.28" y="58.25" class="st3" width="15.51" height="36.16"/>
</g>
</svg>

