<svg width="145" height="151" viewBox="0 0 145 151" fill="none" xmlns="http://www.w3.org/2000/svg">
<g filter="url(#filter0_dd_832_2455)">
<rect x="10" y="12" width="125" height="125" rx="10" fill="white" shape-rendering="crispEdges"/>
<rect x="26.5" y="37.6499" width="92" height="35.7" rx="17.85" fill="#A4A6A7"/>
<g filter="url(#filter1_d_832_2455)">
<rect x="26.5" y="32" width="45.2459" height="45.6716" rx="22.623" fill="url(#paint0_linear_832_2455)"/>
</g>
<g filter="url(#filter2_d_832_2455)">
<rect x="30.2695" y="35.8062" width="38.459" height="38.8209" rx="19.2295" fill="white"/>
</g>
<g clip-path="url(#clip0_832_2455)">
<path d="M39.0272 66.7802C39.5419 67.2997 40.3733 67.2997 40.888 66.7802L41.4026 66.2607C41.9173 65.7412 41.9041 64.9019 41.4026 64.3958L41.3894 64.3824C40.8748 63.8629 40.0434 63.8629 39.5287 64.3824L39.014 64.9019C38.5125 65.4348 38.5125 66.2607 39.0272 66.7802ZM49.2415 71.0562H49.2547C49.9805 71.0562 50.5611 70.4701 50.5611 69.7374V68.4586C50.5611 67.726 49.9805 67.1399 49.2547 67.1399H49.2415C48.5157 67.1399 47.935 67.726 47.935 68.4586V69.7374C47.935 70.4701 48.5157 71.0562 49.2415 71.0562ZM37.3908 55.1377H36.0448C35.3189 55.1377 34.7383 55.7239 34.7383 56.4565V56.4698C34.7383 57.2025 35.3189 57.7886 36.0448 57.7886H37.3776C38.1034 57.7886 38.6841 57.2025 38.6841 56.4698V56.4565C38.6973 55.7239 38.1166 55.1377 37.3908 55.1377ZM53.2137 49.5563V44.481C53.2137 43.7484 52.6198 43.1489 51.894 43.1489H46.6153C45.8895 43.1489 45.2957 43.7484 45.2957 44.481V49.5563C42.6035 51.1281 40.9143 54.2452 41.429 57.722C41.9569 61.1987 44.8074 63.9828 48.2649 64.4091C53.0685 64.9952 57.1727 61.2121 57.1727 56.4831C57.1727 53.5126 55.5759 50.9416 53.2137 49.5563ZM59.8121 56.4565V56.4698C59.8121 57.2025 60.3927 57.7886 61.1185 57.7886H62.4514C63.1772 57.7886 63.7579 57.2025 63.7579 56.4698V56.4565C63.7579 55.7239 63.1772 55.1377 62.4514 55.1377H61.1185C60.3927 55.1377 59.8121 55.7239 59.8121 56.4565ZM57.0935 66.274L57.6082 66.7935C58.1229 67.313 58.9543 67.313 59.4689 66.7935C59.9836 66.274 59.9836 65.4348 59.4689 64.9153L58.9543 64.3958C58.4396 63.8762 57.6082 63.8896 57.1067 64.3958C56.5789 64.9286 56.5789 65.7545 57.0935 66.274Z" fill="#A4A6A7"/>
</g>
<path d="M53.8441 115V103.641H56.1566V113.07H61.9066V115H53.8441ZM63.7072 105.578V103.547H65.9025V105.578H63.7072ZM63.7072 115V106.703H65.9025V115H63.7072ZM68.1172 115.547L70.625 115.852C70.6667 116.143 70.763 116.344 70.9141 116.453C71.1224 116.609 71.4505 116.688 71.8984 116.688C72.4714 116.688 72.901 116.602 73.1875 116.43C73.3802 116.315 73.526 116.13 73.625 115.875C73.6927 115.693 73.7266 115.357 73.7266 114.867V113.656C73.0703 114.552 72.2422 115 71.2422 115C70.1276 115 69.2448 114.529 68.5938 113.586C68.0833 112.841 67.8281 111.914 67.8281 110.805C67.8281 109.414 68.1615 108.352 68.8281 107.617C69.5 106.883 70.3333 106.516 71.3281 106.516C72.3542 106.516 73.2005 106.966 73.8672 107.867V106.703H75.9219V114.148C75.9219 115.128 75.8411 115.859 75.6797 116.344C75.5182 116.828 75.2917 117.208 75 117.484C74.7083 117.76 74.3177 117.977 73.8281 118.133C73.3438 118.289 72.7292 118.367 71.9844 118.367C70.5781 118.367 69.5807 118.125 68.9922 117.641C68.4036 117.161 68.1094 116.552 68.1094 115.812C68.1094 115.74 68.112 115.651 68.1172 115.547ZM70.0781 110.68C70.0781 111.56 70.2474 112.206 70.5859 112.617C70.9297 113.023 71.3516 113.227 71.8516 113.227C72.388 113.227 72.8411 113.018 73.2109 112.602C73.5807 112.18 73.7656 111.557 73.7656 110.734C73.7656 109.875 73.5885 109.237 73.2344 108.82C72.8802 108.404 72.4323 108.195 71.8906 108.195C71.3646 108.195 70.9297 108.401 70.5859 108.812C70.2474 109.219 70.0781 109.841 70.0781 110.68ZM80.4491 103.547V107.758C81.1574 106.93 82.0037 106.516 82.9881 106.516C83.4933 106.516 83.9491 106.609 84.3553 106.797C84.7616 106.984 85.0662 107.224 85.2694 107.516C85.4777 107.807 85.6183 108.13 85.6912 108.484C85.7694 108.839 85.8084 109.388 85.8084 110.133V115H83.6131V110.617C83.6131 109.747 83.5715 109.195 83.4881 108.961C83.4048 108.727 83.2564 108.542 83.0428 108.406C82.8345 108.266 82.5715 108.195 82.2537 108.195C81.8892 108.195 81.5636 108.284 81.2772 108.461C80.9907 108.638 80.7798 108.906 80.6444 109.266C80.5142 109.62 80.4491 110.146 80.4491 110.844V115H78.2537V103.547H80.4491ZM92.0075 106.703V108.453H90.5075V111.797C90.5075 112.474 90.5205 112.87 90.5466 112.984C90.5778 113.094 90.6429 113.185 90.7419 113.258C90.846 113.331 90.971 113.367 91.1169 113.367C91.32 113.367 91.6143 113.297 91.9997 113.156L92.1872 114.859C91.6768 115.078 91.0986 115.188 90.4528 115.188C90.057 115.188 89.7002 115.122 89.3825 114.992C89.0648 114.857 88.8304 114.685 88.6794 114.477C88.5335 114.263 88.432 113.977 88.3747 113.617C88.3278 113.362 88.3044 112.846 88.3044 112.07V108.453H87.2966V106.703H88.3044V105.055L90.5075 103.773V106.703H92.0075Z" fill="#244B47"/>
</g>
<defs>
<filter id="filter0_dd_832_2455" x="0" y="0" width="145" height="151" filterUnits="userSpaceOnUse" color-interpolation-filters="sRGB">
<feFlood flood-opacity="0" result="BackgroundImageFix"/>
<feColorMatrix in="SourceAlpha" type="matrix" values="0 0 0 0 0 0 0 0 0 0 0 0 0 0 0 0 0 0 127 0" result="hardAlpha"/>
<feOffset dy="4"/>
<feGaussianBlur stdDeviation="5"/>
<feComposite in2="hardAlpha" operator="out"/>
<feColorMatrix type="matrix" values="0 0 0 0 0 0 0 0 0 0 0 0 0 0 0 0 0 0 0.15 0"/>
<feBlend mode="normal" in2="BackgroundImageFix" result="effect1_dropShadow_832_2455"/>
<feColorMatrix in="SourceAlpha" type="matrix" values="0 0 0 0 0 0 0 0 0 0 0 0 0 0 0 0 0 0 127 0" result="hardAlpha"/>
<feOffset dy="-2"/>
<feGaussianBlur stdDeviation="5"/>
<feComposite in2="hardAlpha" operator="out"/>
<feColorMatrix type="matrix" values="0 0 0 0 0 0 0 0 0 0 0 0 0 0 0 0 0 0 0.15 0"/>
<feBlend mode="normal" in2="effect1_dropShadow_832_2455" result="effect2_dropShadow_832_2455"/>
<feBlend mode="normal" in="SourceGraphic" in2="effect2_dropShadow_832_2455" result="shape"/>
</filter>
<filter id="filter1_d_832_2455" x="23.5" y="29" width="51.2461" height="51.6719" filterUnits="userSpaceOnUse" color-interpolation-filters="sRGB">
<feFlood flood-opacity="0" result="BackgroundImageFix"/>
<feColorMatrix in="SourceAlpha" type="matrix" values="0 0 0 0 0 0 0 0 0 0 0 0 0 0 0 0 0 0 127 0" result="hardAlpha"/>
<feMorphology radius="1" operator="dilate" in="SourceAlpha" result="effect1_dropShadow_832_2455"/>
<feOffset/>
<feGaussianBlur stdDeviation="1"/>
<feComposite in2="hardAlpha" operator="out"/>
<feColorMatrix type="matrix" values="0 0 0 0 0 0 0 0 0 0 0 0 0 0 0 0 0 0 0.39 0"/>
<feBlend mode="normal" in2="BackgroundImageFix" result="effect1_dropShadow_832_2455"/>
<feBlend mode="normal" in="SourceGraphic" in2="effect1_dropShadow_832_2455" result="shape"/>
</filter>
<filter id="filter2_d_832_2455" x="28.2695" y="33.8062" width="42.459" height="42.8208" filterUnits="userSpaceOnUse" color-interpolation-filters="sRGB">
<feFlood flood-opacity="0" result="BackgroundImageFix"/>
<feColorMatrix in="SourceAlpha" type="matrix" values="0 0 0 0 0 0 0 0 0 0 0 0 0 0 0 0 0 0 127 0" result="hardAlpha"/>
<feMorphology radius="1" operator="dilate" in="SourceAlpha" result="effect1_dropShadow_832_2455"/>
<feOffset/>
<feGaussianBlur stdDeviation="0.5"/>
<feComposite in2="hardAlpha" operator="out"/>
<feColorMatrix type="matrix" values="0 0 0 0 1 0 0 0 0 1 0 0 0 0 1 0 0 0 1 0"/>
<feBlend mode="normal" in2="BackgroundImageFix" result="effect1_dropShadow_832_2455"/>
<feBlend mode="normal" in="SourceGraphic" in2="effect1_dropShadow_832_2455" result="shape"/>
</filter>
<linearGradient id="paint0_linear_832_2455" x1="66.3777" y1="73.6418" x2="23.6583" y2="59.743" gradientUnits="userSpaceOnUse">
<stop stop-color="#C4C4C4"/>
<stop offset="1" stop-color="white"/>
</linearGradient>
<clipPath id="clip0_832_2455">
<rect width="31.6721" height="31.9701" fill="white" transform="translate(33.418 40.418)"/>
</clipPath>
</defs>
</svg>
